<svg width="17" height="17" viewBox="0 0 17 17" fill="none" xmlns="http://www.w3.org/2000/svg">
<path d="M14.4268 8.09824L8.15469 2.65459C8.10654 2.61309 8.04512 2.58984 7.98037 2.58984H6.51113C6.38828 2.58984 6.33184 2.74258 6.42481 2.82227L12.2387 7.86914H2.52344C2.45039 7.86914 2.39062 7.92891 2.39062 8.00195V8.99805C2.39062 9.07109 2.45039 9.13086 2.52344 9.13086H12.237L6.42314 14.1777C6.33018 14.2591 6.38662 14.4102 6.50947 14.4102H8.02852C8.06006 14.4102 8.0916 14.3985 8.11484 14.377L14.4268 8.90176C14.4842 8.85178 14.5303 8.79005 14.5619 8.72075C14.5935 8.65144 14.6098 8.57616 14.6098 8.5C14.6098 8.42384 14.5935 8.34856 14.5619 8.27925C14.5303 8.20995 14.4842 8.14822 14.4268 8.09824Z" fill="#213536"/>
</svg>
