<svg width="60" height="60" viewBox="0 0 60 60" fill="none" xmlns="http://www.w3.org/2000/svg">
<circle cx="30" cy="30" r="30" fill="#EFECFE"/>
<path d="M37.507 33.24C38.161 32.0119 38.5021 30.6414 38.5 29.25C38.5 24.5555 34.6945 20.75 30 20.75C25.3055 20.75 21.5 24.5555 21.5 29.25C21.4966 31.2551 22.2053 33.1963 23.5 34.7275L23.51 34.74C23.5135 34.743 23.5165 34.747 23.519 34.75H23.5L28.544 40.105C28.731 40.3035 28.9566 40.4616 29.2069 40.5697C29.4573 40.6778 29.7271 40.7336 29.9998 40.7336C30.2724 40.7336 30.5422 40.6778 30.7926 40.5697C31.0429 40.4616 31.2685 40.3035 31.4555 40.105L36.5 34.75H36.481L36.489 34.7405L36.49 34.7395C36.526 34.6965 36.562 34.6535 36.5975 34.6095C36.9443 34.1833 37.2491 33.7244 37.5075 33.2395L37.507 33.24ZM30.002 32.5C29.2064 32.5 28.4433 32.1839 27.8807 31.6213C27.3181 31.0587 27.002 30.2956 27.002 29.5C27.002 28.7044 27.3181 27.9413 27.8807 27.3787C28.4433 26.8161 29.2064 26.5 30.002 26.5C30.7976 26.5 31.5607 26.8161 32.1233 27.3787C32.6859 27.9413 33.002 28.7044 33.002 29.5C33.002 30.2956 32.6859 31.0587 32.1233 31.6213C31.5607 32.1839 30.7976 32.5 30.002 32.5Z" fill="#6143F1"/>
</svg>
