<svg width="136" height="32" viewBox="0 0 136 32" fill="none" xmlns="http://www.w3.org/2000/svg">
<g clip-path="url(#clip0_1_352)">
<path d="M39.0002 9.90005H42.4198V23.7674H39.0002V9.90005ZM43.7834 18.5512C43.7834 15.1163 45.914 13.0575 49.1099 13.0575C52.3059 13.0575 54.4365 15.1163 54.4365 18.5512C54.4365 21.9859 52.3805 24.0661 49.1099 24.0661C45.8395 24.0661 43.7834 22.0606 43.7834 18.5512ZM51.0489 18.5512C51.0489 16.6631 50.3138 15.5537 49.1419 15.5537C47.9701 15.5537 47.2456 16.6204 47.2456 18.5512C47.2456 20.4819 47.9701 21.5379 49.1419 21.5379C50.3138 21.5379 51.0701 20.4819 51.0701 18.5618L51.0489 18.5512ZM55.8001 24.4821H59.1026C59.2529 24.8382 59.5155 25.1351 59.8502 25.3277C60.1849 25.5203 60.5734 25.598 60.9563 25.5488C62.2666 25.5488 62.9484 24.8448 62.9484 23.7994V21.8793H62.959C62.6769 22.4772 62.2205 22.9755 61.6501 23.3087C61.0796 23.6419 60.4218 23.7944 59.7631 23.746C57.2596 23.746 55.5977 21.8366 55.5977 18.5512C55.5977 15.2656 57.1851 13.2175 59.859 13.2175C60.5345 13.1813 61.2046 13.3558 61.777 13.7169C62.3494 14.078 62.7958 14.6079 63.0549 15.2336H62.959V13.3029H66.3468V23.6927C66.3468 26.1995 64.1309 27.7676 60.871 27.7676C57.9095 27.7569 56.0132 26.4022 55.8215 24.4928L55.8001 24.4821ZM62.959 18.5512C62.959 16.8764 62.192 15.8203 60.9775 15.8203C59.7631 15.8203 59.0174 16.8871 59.0174 18.5512C59.0174 20.2152 59.7524 21.1966 60.9775 21.1966C62.2027 21.1966 62.959 20.2899 62.959 18.5512ZM67.6997 18.5512C67.6997 15.1163 69.8303 13.0575 73.0262 13.0575C76.2222 13.0575 78.3528 15.1163 78.3528 18.5512C78.3528 21.9859 76.2861 24.0661 73.0262 24.0661C69.7664 24.0661 67.7209 22.0606 67.7209 18.5512H67.6997ZM74.9651 18.5512C74.9651 16.6631 74.2194 15.5537 73.0582 15.5537C71.897 15.5537 71.1619 16.6204 71.1619 18.5512C71.1619 20.4819 71.8863 21.5379 73.0582 21.5379C74.2301 21.5379 74.9865 20.4819 74.9865 18.5618L74.9651 18.5512ZM79.7377 10.7747C79.7229 10.4259 79.8125 10.0807 79.9952 9.78333C80.178 9.48599 80.4453 9.2502 80.7629 9.10628C81.0806 8.96237 81.4339 8.91689 81.7776 8.97567C82.1213 9.03453 82.4396 9.19495 82.6914 9.43639C82.9433 9.67782 83.1172 9.98914 83.1909 10.3304C83.2646 10.6716 83.2346 11.0271 83.1048 11.3512C82.9751 11.6752 82.7515 11.9529 82.4628 12.1487C82.1741 12.3444 81.8335 12.4492 81.4848 12.4495C81.262 12.4552 81.0403 12.4165 80.8325 12.3357C80.6247 12.2548 80.4351 12.1335 80.2746 11.9787C80.114 11.8238 79.9857 11.6387 79.8972 11.4339C79.8087 11.229 79.7617 11.0086 79.759 10.7854L79.7377 10.7747ZM79.7377 13.2922H83.2V23.81H79.7909L79.7377 13.2922ZM95.6533 18.5512C95.6533 21.9753 94.1196 23.9594 91.5095 23.9594C90.8413 24.0007 90.1764 23.8356 89.6047 23.4865C89.033 23.1374 88.583 22.6211 88.3135 22.0073H88.2497V27.1916H84.8296V13.3242H88.2279V15.2016H88.2925C88.5519 14.5758 88.9986 14.0453 89.5703 13.6826C90.142 13.3199 90.8119 13.1427 91.4877 13.1749C94.1724 13.1535 95.7171 15.127 95.7171 18.5618L95.6533 18.5512ZM92.1702 18.5512C92.1702 16.8871 91.392 15.8097 90.1881 15.8097C88.9843 15.8097 88.2279 16.8764 88.2178 18.5512C88.2069 20.2259 88.9843 21.2819 90.1881 21.2819C91.392 21.2819 92.234 20.2899 92.234 18.5618L92.1702 18.5512ZM101.491 13.0468C104.357 13.0468 106.136 14.4016 106.157 16.5777H103.036C103.036 15.8203 102.408 15.351 101.47 15.351C100.533 15.351 100.085 15.7137 100.085 16.2577C100.085 16.8017 100.48 16.9724 101.268 17.1324L103.462 17.5804C105.593 18.0285 106.445 18.8819 106.445 20.4713C106.445 22.6046 104.474 24.0554 101.545 24.0554C98.6151 24.0554 96.7077 22.6473 96.5701 20.5033H99.8828C99.9785 21.2819 100.596 21.7406 101.598 21.7406C102.599 21.7406 103.068 21.4206 103.068 20.8552C103.068 20.2899 102.749 20.1939 101.928 20.0232L99.9466 19.6072C97.8906 19.1699 96.8144 18.0925 96.8144 16.4817C96.879 14.3909 98.668 13.0575 101.555 13.0575L101.491 13.0468ZM117.897 23.7994H114.584V21.8259H114.52C114.335 22.4842 113.931 23.0595 113.375 23.457C112.82 23.8546 112.145 24.0505 111.463 24.0127C110.947 24.0296 110.435 23.9371 109.959 23.7416C109.482 23.5459 109.052 23.2516 108.697 22.8779C108.342 22.5042 108.07 22.0595 107.898 21.5731C107.726 21.0866 107.66 20.5694 107.702 20.0552V13.3029H111.122V19.3192C111.122 20.5566 111.772 21.2286 112.837 21.2286C113.087 21.2267 113.333 21.1712 113.56 21.0657C113.787 20.9602 113.988 20.8073 114.151 20.6172C114.313 20.427 114.433 20.2043 114.503 19.9638C114.572 19.7233 114.588 19.4707 114.552 19.2232V13.3029H117.962L117.897 23.7994ZM119.548 13.2922H122.873V15.319H122.947C123.13 14.6697 123.524 14.0997 124.066 13.6983C124.607 13.2968 125.267 13.0865 125.94 13.1002C126.617 13.0414 127.291 13.2371 127.831 13.6495C128.371 14.0618 128.737 14.6609 128.859 15.3296H129.009C129.221 14.6574 129.65 14.0743 130.228 13.6711C130.806 13.2679 131.501 13.0672 132.205 13.1002C132.672 13.0824 133.138 13.1636 133.572 13.3387C134.006 13.5137 134.399 13.7785 134.723 14.1159C135.048 14.4532 135.298 14.8554 135.457 15.2963C135.616 15.737 135.68 16.2064 135.646 16.6737V23.81H132.205V17.5484C132.205 16.4817 131.703 15.8843 130.735 15.8843C130.519 15.8808 130.306 15.9239 130.109 16.0106C129.913 16.0973 129.736 16.2256 129.594 16.3867C129.451 16.5478 129.345 16.7379 129.282 16.9439C129.22 17.15 129.203 17.3671 129.232 17.5804V23.81H125.972V17.5164C125.972 16.4497 125.45 15.8843 124.513 15.8843C124.296 15.8826 124.081 15.9274 123.882 16.0158C123.684 16.1042 123.506 16.234 123.362 16.3967C123.218 16.5594 123.109 16.7511 123.046 16.9589C122.981 17.1667 122.962 17.3859 122.989 17.6018V23.81H119.57L119.548 13.2922Z" fill="#282938"/>
<path d="M32.2361 10.8062C32.2362 8.68306 31.5959 6.60945 30.3991 4.85689C29.2023 3.10433 27.5048 1.75457 25.529 0.984386C23.5531 0.214209 21.391 0.0595329 19.3259 0.540615C17.2607 1.0217 15.3888 2.11611 13.9553 3.6805H0.660217V31.7779H28.7312V18.6466C29.8329 17.6598 30.7146 16.4516 31.3185 15.1006C31.9224 13.7496 32.2351 12.2863 32.2361 10.8062ZM26.835 10.8062C26.8371 11.8235 26.5377 12.8186 25.9747 13.6656C25.4119 14.5125 24.6106 15.1732 23.6726 15.564C22.7345 15.9548 21.7017 16.0581 20.7049 15.8609C19.7082 15.6638 18.7923 15.1749 18.0731 14.4563C17.3539 13.7376 16.8637 12.8215 16.6648 11.8239C16.4658 10.8262 16.5669 9.79186 16.9552 8.85174C17.3435 7.91159 18.0016 7.10796 18.8463 6.54252C19.691 5.97708 20.6841 5.67527 21.7001 5.67526C23.0601 5.67526 24.3646 6.21549 25.3272 7.17742C26.2899 8.13935 26.8321 9.44441 26.835 10.8062ZM23.33 26.3696H6.06135V9.08879H11.324C11.2224 9.65569 11.1689 10.2302 11.1642 10.8062C11.167 13.6033 12.2779 16.2851 14.2532 18.2629C16.2285 20.2408 18.9067 21.3532 21.7001 21.3561C22.2462 21.3531 22.7912 21.3068 23.33 21.2174V26.3696Z" fill="#282938"/>
</g>
<defs>
<clipPath id="clip0_1_352">
<rect width="136" height="32" fill="white"/>
</clipPath>
</defs>
</svg>
