<svg width="60" height="60" viewBox="0 0 60 60" fill="none" xmlns="http://www.w3.org/2000/svg">
<circle cx="30" cy="30" r="30" fill="#EFECFE"/>
<path d="M40.8001 36.4V25.6C40.8001 24.604 39.9961 23.8 39.0001 23.8H22.1881C21.1921 23.8 20.3881 24.604 20.3881 25.6V36.4C20.3881 37.396 21.1921 38.2 22.1881 38.2H39.0001C39.9961 38.2 40.8001 37.396 40.8001 36.4ZM39.2281 25.468C39.6241 25.864 39.4081 26.272 39.1921 26.476L34.3201 30.94L39.0001 35.812C39.1441 35.98 39.2401 36.244 39.0721 36.424C38.9161 36.616 38.5561 36.604 38.4001 36.484L33.1561 32.008L30.5881 34.348L28.0321 32.008L22.7881 36.484C22.6321 36.604 22.2721 36.616 22.1161 36.424C21.9481 36.244 22.0441 35.98 22.1881 35.812L26.8681 30.94L21.9961 26.476C21.7801 26.272 21.5641 25.864 21.9601 25.468C22.3561 25.072 22.7641 25.264 23.1001 25.552L30.5881 31.6L38.0881 25.552C38.4241 25.264 38.8321 25.072 39.2281 25.468V25.468Z" fill="#6143F1"/>
</svg>
