<svg width="174" height="40" viewBox="0 0 174 40" fill="none" xmlns="http://www.w3.org/2000/svg">
<path d="M108.906 10.6797V29.1367H107.539L96.6836 17.9531V29H92.8828V10.543H94.25L105.105 21.8906V10.6797H108.906ZM118.816 14.8359C120.165 14.8359 121.323 15.1276 122.289 15.7109C123.273 16.2943 124.021 17.1055 124.531 18.1445C125.06 19.1654 125.324 20.3503 125.324 21.6992V23.1758H115.316C115.499 24.1055 115.954 24.8529 116.684 25.418C117.413 25.9831 118.306 26.2656 119.363 26.2656C120.366 26.2656 121.277 26.0651 122.098 25.6641C122.918 25.263 123.574 24.8529 124.066 24.4336L124.039 27.6602C123.602 28.043 122.945 28.4349 122.07 28.8359C121.214 29.2188 120.266 29.4102 119.227 29.4102C117.859 29.4102 116.611 29.1003 115.48 28.4805C114.368 27.8607 113.475 27.013 112.801 25.9375C112.145 24.862 111.816 23.6315 111.816 22.2461C111.816 20.8971 112.117 19.6667 112.719 18.5547C113.32 17.4427 114.15 16.5495 115.207 15.875C116.264 15.1823 117.467 14.8359 118.816 14.8359ZM118.734 17.8711C117.878 17.8711 117.158 18.1354 116.574 18.6641C115.991 19.1927 115.59 19.9036 115.371 20.7969H121.988C121.915 19.8125 121.551 19.0833 120.895 18.6094C120.238 18.1172 119.518 17.8711 118.734 17.8711ZM140.758 15.1914L135.344 21.9453L140.949 29H136.602L133.156 24.1875L129.711 29H125.363L130.969 21.9453L125.555 15.1914H129.656L133.156 19.6211L136.656 15.1914H140.758ZM147.223 11.1719V15.1914H151.051V18.0898H147.223V24.0508C147.223 24.6706 147.359 25.1628 147.633 25.5273C147.924 25.8737 148.353 26.0469 148.918 26.0469C149.41 26.0469 149.829 25.9922 150.176 25.8828C150.54 25.7734 150.878 25.6185 151.188 25.418V28.1797C150.841 28.526 150.404 28.8177 149.875 29.0547C149.365 29.2917 148.717 29.4102 147.934 29.4102C146.694 29.4102 145.682 29.0182 144.898 28.2344C144.133 27.4323 143.75 26.3385 143.75 24.9531V18.0898H141.262V16.3125C142.137 16.0026 142.939 15.4193 143.668 14.5625C144.415 13.7057 145.008 12.5755 145.445 11.1719H147.223ZM160.18 12.7852V16.5586L167.727 20.7148L160.18 25.2266V29L172.074 21.4531V20.0586L160.18 12.7852Z" fill="#232536"/>
<path d="M11.9844 15.1016V18.3359L5.51562 21.8984L11.9844 25.7656V29L1.78906 22.5312V21.3359L11.9844 15.1016ZM29.0234 13.2969C29.7578 13.2969 30.4766 13.4219 31.1797 13.6719C31.8828 13.9219 32.5156 14.2891 33.0781 14.7734C33.6562 15.2578 34.1094 15.8438 34.4375 16.5312C34.7812 17.2031 34.9531 17.9766 34.9531 18.8516C34.9531 19.9141 34.6797 20.8594 34.1328 21.6875C33.6016 22.5 32.8906 23.1406 32 23.6094C31.1094 24.0781 30.1406 24.3125 29.0938 24.3125C28.3906 24.3125 27.7578 24.2422 27.1953 24.1016C26.6328 23.9609 26.1641 23.7969 25.7891 23.6094V29H22.5312V13.2969H29.0234ZM25.7891 16.3438V20.9844C26.1328 21.125 26.5469 21.25 27.0312 21.3594C27.5312 21.4531 28.0391 21.5 28.5547 21.5C29.4922 21.5 30.2344 21.2422 30.7812 20.7266C31.3438 20.1953 31.625 19.5703 31.625 18.8516C31.625 18.0234 31.3125 17.3984 30.6875 16.9766C30.0625 16.5547 29.3281 16.3438 28.4844 16.3438H25.7891ZM45.1719 20.4922C44.6719 20.2109 44.1484 20.0703 43.6016 20.0703C42.9141 20.0703 42.3438 20.2969 41.8906 20.75C41.4375 21.1875 41.0391 21.7344 40.6953 22.3906V29H37.7188V17.1641H40.6953V19.3906C41.1016 18.6875 41.5781 18.1016 42.125 17.6328C42.6875 17.1641 43.3203 16.9297 44.0234 16.9297C44.4453 16.9297 44.8281 17 45.1719 17.1406V20.4922ZM52.6484 16.8594C53.8047 16.8594 54.7969 17.1094 55.625 17.6094C56.4688 18.1094 57.1094 18.8047 57.5469 19.6953C58 20.5703 58.2266 21.5859 58.2266 22.7422V24.0078H49.6484C49.8047 24.8047 50.1953 25.4453 50.8203 25.9297C51.4453 26.4141 52.2109 26.6562 53.1172 26.6562C53.9766 26.6562 54.7578 26.4844 55.4609 26.1406C56.1641 25.7969 56.7266 25.4453 57.1484 25.0859L57.125 27.8516C56.75 28.1797 56.1875 28.5156 55.4375 28.8594C54.7031 29.1875 53.8906 29.3516 53 29.3516C51.8281 29.3516 50.7578 29.0859 49.7891 28.5547C48.8359 28.0234 48.0703 27.2969 47.4922 26.375C46.9297 25.4531 46.6484 24.3984 46.6484 23.2109C46.6484 22.0547 46.9062 21 47.4219 20.0469C47.9375 19.0938 48.6484 18.3281 49.5547 17.75C50.4609 17.1562 51.4922 16.8594 52.6484 16.8594ZM52.5781 19.4609C51.8438 19.4609 51.2266 19.6875 50.7266 20.1406C50.2266 20.5938 49.8828 21.2031 49.6953 21.9688H55.3672C55.3047 21.125 54.9922 20.5 54.4297 20.0938C53.8672 19.6719 53.25 19.4609 52.5781 19.4609ZM72.3828 17.1641L66.7812 29H64.8828L59.3516 17.1641H62.8203L65.7969 24.5L68.9141 17.1641H72.3828Z" fill="#6D6E76"/>
</svg>
