<svg width="60" height="60" viewBox="0 0 60 60" fill="none" xmlns="http://www.w3.org/2000/svg">
<circle cx="30" cy="30" r="30" fill="#EFECFE"/>
<path d="M33.63 32.4L31.11 34.9C28.61 33.47 26.54 31.4 25.11 28.9L27.61 26.38C27.84 26.14 27.94 25.81 27.88 25.48L27.13 21.8C27.04 21.34 26.63 21 26.15 21H22C21.44 21 20.97 21.47 21 22.03C21.17 24.92 22.05 27.63 23.43 30C25.01 32.73 27.28 34.99 30 36.57C32.37 37.94 35.08 38.83 37.97 39C38.53 39.03 39 38.56 39 38V33.85C39 33.37 38.66 32.96 38.2 32.87L34.53 32.14C34.3702 32.1052 34.2042 32.1108 34.0471 32.1562C33.89 32.2015 33.7466 32.2854 33.63 32.4V32.4Z" fill="#6143F1"/>
</svg>
