<svg width="48" height="48" viewBox="0 0 48 48" fill="none" xmlns="http://www.w3.org/2000/svg">
<path d="M39 48H9C4.029 48 0 43.971 0 39V9C0 4.029 4.029 0 9 0H39C43.971 0 48 4.029 48 9V39C48 43.971 43.971 48 39 48Z" fill="#FBF6EA"/>
<g clip-path="url(#clip0_1_16)">
<path d="M17.8505 18.2115L15.8579 18.3655C15.3034 18.4083 14.8096 18.6989 14.503 19.1627L12.2049 22.6384C11.9724 22.9901 11.9354 23.4303 12.106 23.8159C12.2766 24.2015 12.6272 24.4703 13.0438 24.5348L14.8683 24.8174C15.2951 22.5524 16.3168 20.2931 17.8505 18.2115V18.2115Z" fill="#FFD050"/>
<path d="M22.1836 32.1316L22.4662 33.9561C22.5307 34.3728 22.7995 34.7234 23.185 34.8939C23.3454 34.9649 23.5152 34.9999 23.6842 34.9999C23.9215 34.9999 24.1572 34.9308 24.3626 34.795L27.8384 32.497C28.3022 32.1903 28.5928 31.6964 28.6355 31.142L28.7895 29.1494C26.7079 30.6832 24.4486 31.7049 22.1836 32.1316V32.1316Z" fill="#FFD050"/>
<path d="M21.4967 30.8666C21.5601 30.8666 21.6238 30.8614 21.6873 30.8508C22.6363 30.6922 23.5509 30.4249 24.4233 30.075L16.9246 22.5763C16.5747 23.4487 16.3075 24.3633 16.1488 25.3123C16.0863 25.6863 16.2117 26.0674 16.4799 26.3356L20.664 30.5198C20.8867 30.7423 21.1871 30.8666 21.4967 30.8666Z" fill="#FFD050"/>
<path d="M33.1661 22.1973C35.0011 18.6497 35.0691 14.9007 34.9732 13.1425C34.9403 12.54 34.46 12.0597 33.8576 12.0269C33.5713 12.0113 33.232 12 32.8496 12C30.8835 12 27.7727 12.2978 24.8027 13.834C22.4425 15.0548 19.3475 17.7429 17.5215 21.2757C17.5431 21.2925 17.5642 21.3104 17.584 21.3302L25.6699 29.4161C25.6897 29.436 25.7076 29.457 25.7244 29.4786C29.2571 27.6525 31.9453 24.5576 33.1661 22.1973V22.1973ZM25.3731 16.8623C26.6867 15.5488 28.8241 15.5486 30.1377 16.8623C30.7741 17.4986 31.1245 18.3447 31.1245 19.2446C31.1245 20.1445 30.7741 20.9906 30.1377 21.627C29.481 22.2837 28.6181 22.6121 27.7555 22.6122C26.8926 22.6122 26.03 22.2838 25.3731 21.627C24.7368 20.9906 24.3863 20.1445 24.3863 19.2446C24.3863 18.3447 24.7368 17.4986 25.3731 16.8623V16.8623Z" fill="#232536"/>
<path d="M26.3264 20.674C27.1146 21.4622 28.3971 21.4622 29.1853 20.674C29.5671 20.2922 29.7773 19.7846 29.7773 19.2446C29.7773 18.7047 29.5671 18.197 29.1853 17.8152C28.7912 17.4211 28.2735 17.2241 27.7559 17.2241C27.2382 17.2241 26.7205 17.4211 26.3265 17.8152C25.9447 18.197 25.7344 18.7047 25.7344 19.2446C25.7344 19.7846 25.9447 20.2922 26.3264 20.674Z" fill="#232536"/>
<path d="M12.6875 30.954C12.8599 30.954 13.0324 30.8882 13.1639 30.7566L15.3639 28.5566C15.627 28.2935 15.627 27.8668 15.3639 27.6037C15.1008 27.3405 14.6741 27.3405 14.4109 27.6037L12.211 29.8036C11.9478 30.0668 11.9478 30.4934 12.211 30.7566C12.3426 30.8882 12.515 30.954 12.6875 30.954Z" fill="#FFD050"/>
<path d="M17.3801 29.6201C17.117 29.357 16.6903 29.357 16.4272 29.6201L12.1976 33.8497C11.9344 34.1129 11.9344 34.5395 12.1976 34.8027C12.3291 34.9342 12.5016 35 12.674 35C12.8465 35 13.0189 34.9342 13.1505 34.8026L17.3801 30.573C17.6433 30.3099 17.6433 29.8833 17.3801 29.6201V29.6201Z" fill="#FFD050"/>
<path d="M18.4422 31.6358L16.2423 33.8358C15.9791 34.099 15.9791 34.5256 16.2423 34.7887C16.3739 34.9203 16.5463 34.9861 16.7187 34.9861C16.8911 34.9861 17.0636 34.9203 17.1952 34.7887L19.3951 32.5888C19.6583 32.3256 19.6583 31.899 19.3951 31.6358C19.132 31.3727 18.7054 31.3727 18.4422 31.6358Z" fill="#FFD050"/>
</g>
<defs>
<clipPath id="clip0_1_16">
<rect width="23" height="23" fill="white" transform="translate(12 12)"/>
</clipPath>
</defs>
</svg>
