<svg width="48" height="49" viewBox="0 0 48 49" fill="none" xmlns="http://www.w3.org/2000/svg">
<path d="M39 49H9C4.029 49 0 44.971 0 40V10C0 5.029 4.029 1 9 1H39C43.971 1 48 5.029 48 10V40C48 44.971 43.971 49 39 49Z" fill="#FBF6EA"/>
<g clip-path="url(#clip0_11_19)">
<path d="M18.1156 27.4253H15.5317C14.5999 27.4253 13.8418 28.2179 13.8418 29.192V34.915C13.8418 35.5133 14.3074 36 14.8796 36H18.7676C19.3398 36 19.8054 35.5133 19.8054 34.915V29.1921C19.8054 28.2179 19.0474 27.4253 18.1156 27.4253Z" fill="#232536"/>
<path d="M25.6995 23.9491H23.1157C22.1839 23.9491 21.4257 24.7417 21.4257 25.7158V34.9147C21.4257 35.513 21.8913 35.9997 22.4636 35.9997H26.3516C26.9239 35.9997 27.3894 35.513 27.3894 34.9147V25.7158C27.3894 24.7416 26.6313 23.9491 25.6995 23.9491Z" fill="#232536"/>
<path d="M33.4261 19.9888H30.8423C29.9104 19.9888 29.1523 20.7813 29.1523 21.7554V34.9148C29.1523 35.5131 29.6179 35.9998 30.1901 35.9998H34.0781C34.6504 35.9998 35.1159 35.5131 35.1159 34.9148V21.7554C35.116 20.7813 34.3579 19.9888 33.4261 19.9888Z" fill="#232536"/>
<path d="M31.3679 12.6682C31.0518 12.2011 30.5378 11.9542 29.9927 12.0065L25.1126 12.4785C24.5676 12.5312 24.1057 12.873 23.8769 13.3927C23.6481 13.9124 23.7002 14.5015 24.0163 14.9686L24.2887 15.3711L18.2316 19.7468L18.2254 19.7514C17.7956 20.0693 17.51 20.5433 17.4211 21.0858C17.3323 21.6284 17.4509 22.1747 17.755 22.624C18.0591 23.0733 18.5125 23.3719 19.0315 23.4648C19.1439 23.485 19.2565 23.4949 19.3683 23.4949C19.7711 23.4949 20.1635 23.3658 20.4994 23.1184L26.5662 18.7358L26.8475 19.1511C27.1355 19.5767 27.5878 19.8198 28.0782 19.8198C28.1259 19.8198 28.1741 19.8175 28.2226 19.8129C28.7676 19.7601 29.2295 19.4184 29.4583 18.8986L31.5074 14.2441C31.7362 13.7243 31.6841 13.1352 31.3679 12.6682Z" fill="#FFD050"/>
</g>
<defs>
<clipPath id="clip0_11_19">
<rect width="22.9565" height="24" fill="white" transform="translate(13 12)"/>
</clipPath>
</defs>
</svg>
